<svg width="48" height="48" viewBox="0 0 48 48" fill="none" xmlns="http://www.w3.org/2000/svg">
<path d="M42.0018 25.58C41.6871 28.9844 40.4095 32.2288 38.3182 34.9336C36.227 37.6383 33.4087 39.6916 30.1932 40.8531C26.9776 42.0146 23.4977 42.2362 20.1608 41.4922C16.8238 40.7481 13.7677 39.0691 11.3502 36.6516C8.93267 34.234 7.25363 31.178 6.50957 27.841C5.76551 24.504 5.98719 21.0242 7.14868 17.8086C8.31016 14.593 10.3634 11.7747 13.0682 9.68351C15.7729 7.59228 19.0173 6.31461 22.4218 6C20.4286 8.69653 19.4695 12.0189 19.7188 15.3628C19.9682 18.7068 21.4095 21.8501 23.7806 24.2212C26.1516 26.5923 29.295 28.0336 32.6389 28.2829C35.9829 28.5323 39.3052 27.5732 42.0018 25.58Z" stroke="white" stroke-width="4" stroke-linecap="round" stroke-linejoin="round"/>
</svg>
